Coordinates
version=1
nRows=10
nColumns=63
inDegrees=yes

Units are S.I. units (second, meters, Newtons, ...)
If the header above contains a line with 'inDegrees', this indicates whether rotational values are in degrees (yes) or radians (no).

endheader
time	pelvis_tilt	pelvis_list	pelvis_rotation	pelvis_tx	pelvis_ty	pelvis_tz	hip_flexion_r	hip_adduction_r	hip_rotation_r	knee_angle_r	knee_angle_r_beta	ankle_angle_r	subtalar_angle_r	mtp_angle_r	hip_flexion_l	hip_adduction_l	hip_rotation_l	knee_angle_l	knee_angle_l_beta	ankle_angle_l	subtalar_angle_l	mtp_angle_l	L5_S1_Flex_Ext	L5_S1_Lat_Bending	L5_S1_axial_rotation	L4_L5_Flex_Ext	L4_L5_Lat_Bending	L4_L5_axial_rotation	L3_L4_Flex_Ext	L3_L4_Lat_Bending	L3_L4_axial_rotation	L2_L3_Flex_Ext	L2_L3_Lat_Bending	L2_L3_axial_rotation	L1_L2_Flex_Ext	L1_L2_Lat_Bending	L1_L2_axial_rotation	L1_T12_Flex_Ext	L1_T12_Lat_Bending	L1_T12_axial_rotation	Abs_r3	Abs_r2	Abs_r1	Abs_t1	Abs_t2	neck_flexion	neck_bending	neck_rotation	arm_flex_r	arm_add_r	arm_rot_r	elbow_flex_r	pro_sup_r	wrist_flex_r	wrist_dev_r	arm_flex_l	arm_add_l	arm_rot_l	elbow_flex_l	pro_sup_l	wrist_flex_l	wrist_dev_l
      0.00000000	      1.13895702	     -3.72149897	     99.70538645	      0.27638579	      0.72409322	      0.91459986	      1.24774311	      1.79840013	     -7.57911376	      5.26619638	      0.09191247	     23.69686188	     10.03106412	      0.00000000	      3.08015320	     -1.35911107	      2.62864018	      7.99052302	      0.13946094	     24.16081557	     -4.43536827	      0.00000000	      0.11452418	      0.43668475	      0.51749225	      0.21268286	      0.58079072	      0.54983552	      0.18815178	      1.06175530	      0.54983552	      0.13088969	      1.06175530	      0.45280572	      0.10634715	      0.89048754	      0.42046246	      0.06543912	      0.67642468	      0.38811919	      0.81803478	      4.93986521	      2.87813666	      0.00000000	      0.00000000	     26.84334885	      2.49195975	     -8.29248957	     12.49332826	     -7.42133383	     69.89524972	     43.14940559	     88.74605933	     -6.11629206	     -0.58601102	     15.75496153	     -6.71777065	     77.08979555	     44.82116371	     51.85364354	    -17.61626459	     -1.56203256
      0.01694915	      0.97848156	     -2.95311456	     99.63027658	      0.27714820	      0.72477836	      0.91065743	     -0.08528473	      1.98468767	     -5.66397834	      4.56470272	      0.07966909	     23.19513496	      7.68729987	      0.00000000	      1.75349860	     -1.51851116	      0.83822528	      7.45057154	      0.13003700	     25.44399733	     -2.47314070	      0.00000000	      0.05537204	      0.41994151	      0.60736132	      0.10283142	      0.55852221	      0.64532140	      0.09097073	      1.02104579	      0.64532140	      0.06328471	      1.02104579	      0.53144116	      0.05141848	      0.85634473	      0.49348107	      0.03163959	      0.65048940	      0.45552099	      0.39551696	      4.75046238	      3.37796146	      0.00000000	      0.00000000	     25.18678140	      1.80591604	     -9.12345840	     11.28612140	     -7.54482628	     66.48078680	     43.27327320	     88.40486799	     -6.64883336	     -0.28609525	     17.12231186	     -5.61925279	     79.28749813	     43.09323824	     62.94835292	    -15.86217355	      5.20847575
      0.03389831	      0.92843607	     -2.29678736	     99.60152208	      0.27748651	      0.72524631	      0.90762370	     -1.18390524	      2.13839936	     -5.10681145	      3.99606340	      0.06974446	     22.98678721	      7.32057556	      0.00000000	      0.54863998	     -1.65154261	      0.46457599	      6.76645350	      0.11809689	     26.04733765	     -2.12116152	      0.00000000	      0.00918073	      0.41612731	      0.64480004	      0.01704954	      0.55344933	      0.68510005	      0.01508303	      1.01177195	      0.68510005	      0.01049266	      1.01177195	      0.56420004	      0.00852523	      0.84856682	      0.52390004	      0.00524587	      0.64458121	      0.48360003	      0.06557707	      4.70731538	      3.58618441	      0.00000000	      0.00000000	     23.86991767	      1.43229392	     -9.27861932	     10.93722871	     -7.50176916	     65.38848296	     42.92180722	     87.92570819	     -7.10910450	     -0.42036530	     18.08172520	     -4.65103483	     82.10399545	     41.36607638	     65.32294023	    -14.12486706	      7.16297103
      0.05084746	      0.85517906	     -1.93915220	     99.54103144	      0.27785122	      0.72537878	      0.90557359	     -1.70604416	      2.16996867	     -4.83153225	      3.89617481	      0.06800108	     23.06919943	      7.04861710	      0.00000000	     -0.00979282	     -1.68873770	      0.22330689	      6.70660290	      0.11705230	     26.41435493	     -2.09537345	      0.00000000	     -0.01087358	      0.39740533	      0.64712845	     -0.02019332	      0.52854908	      0.68757398	     -0.01786420	      0.96625131	      0.68757398	     -0.01242741	      0.96625131	      0.56623739	     -0.01009720	      0.81038894	      0.52579186	     -0.00621316	      0.61558085	      0.48534634	     -0.07766887	      4.49552852	      3.59913428	      0.00000000	      0.00000000	     23.34767658	      1.42673888	     -9.34441738	     10.97850229	     -7.11618586	     65.15024168	     42.17092606	     87.65962290	     -6.95935303	     -0.15825081	     17.84369640	     -3.98119233	     82.59663889	     39.83458399	     66.21577877	    -14.15218197	      7.48494717
      0.06779661	      0.89658073	     -1.60325701	     99.49157987	      0.27816486	      0.72515741	      0.90333407	     -2.77489711	      2.55528001	      2.13131824	      2.47608760	      0.04321588	     20.97149039	     -2.33713893	      0.00000000	     -0.58987228	     -1.95461766	     -2.15655551	      6.55590944	      0.11442221	     27.32156025	      1.06642149	      0.00000000	     -0.02856087	      0.38851772	      0.65760051	     -0.05304040	      0.51672857	      0.69870054	     -0.04692266	      0.94464199	      0.69870054	     -0.03264222	      0.94464199	      0.57540045	     -0.02652163	      0.79226534	      0.53430041	     -0.01631968	      0.60181395	      0.49320038	     -0.20400745	      4.39499018	      3.65737675	      0.00000000	      0.00000000	     23.56515093	      1.37760378	     -9.28910169	     11.04814111	     -6.81923491	     65.08723041	     41.58862797	     87.37591732	     -5.69582862	      0.15126458	     16.81727001	     -3.57000486	     80.10287537	     38.73904416	     77.93971686	    -14.08332506	      8.87566184
      0.08474576	      0.97311666	     -1.51606636	     99.48096259	      0.27840148	      0.72473866	      0.90260347	     -2.92451976	      2.65611767	      2.38411699	      2.35043917	      0.04102290	     21.06207125	     -2.44930227	      0.00000000	     -0.75006633	     -2.07513467	     -2.11364639	      6.50596360	      0.11355049	     27.47956706	      1.07544611	      0.00000000	     -0.02840137	      0.37763721	      0.66453733	     -0.05274418	      0.50225749	      0.70607091	     -0.04666061	      0.91818712	      0.70607091	     -0.03245992	      0.91818712	      0.58147016	     -0.02637351	      0.77007780	      0.53993658	     -0.01622854	      0.58496004	      0.49840300	     -0.20286814	      4.27190767	      3.69595726	      0.00000000	      0.00000000	     24.35372008	      1.39499748	     -9.21906501	     11.29211688	     -6.29304031	     65.45399234	     40.64585154	     87.32185633	     -5.30945015	      0.41843421	     16.27363896	     -3.13365363	     79.62435184	     37.41005674	     77.64759307	    -14.60513158	      8.45735218
      0.10169492	      1.17202755	     -1.37246725	     99.24510847	      0.27834142	      0.72429790	      0.90178786	     -3.12467403	      2.86948552	      3.28558505	      2.19486899	      0.03830769	     20.92057043	     -3.37445257	      0.00000000	     -0.99477320	     -2.28435879	     -2.30055163	      6.44672292	      0.11251654	     27.56523000	      0.96188647	      0.00000000	     -0.03779797	      0.39455644	      0.58702151	     -0.07019461	      0.52476006	      0.62371036	     -0.06209829	      0.95932453	      0.62371036	     -0.04319930	      0.95932453	      0.51364382	     -0.03509920	      0.80457949	      0.47695498	     -0.02159776	      0.61116792	      0.44026614	     -0.26998714	      4.46330135	      3.26483755	      0.00000000	      0.00000000	     25.68380983	      1.38970671	     -8.28723138	     12.28877894	     -5.88514398	     67.72341693	     39.59865580	     87.24643327	     -3.61545561	      0.35665782	     14.60342903	     -2.79535316	     76.64416836	     35.83010215	     75.27540209	    -16.14690127	      4.75463166
      0.11864407	      1.24819402	     -1.49789744	     99.30137036	      0.27836909	      0.72353679	      0.90117747	     -3.25471354	      3.00782309	      7.00534832	      1.60948528	      0.02809082	     19.55775581	     -8.82982439	      0.00000000	     -0.89109684	     -2.33919337	     -2.02032535	      6.43079492	      0.11223854	     27.58413497	      0.64956484	      0.00000000	     -0.00111148	      0.38676691	      0.50674453	     -0.00206413	      0.51439999	      0.53841606	     -0.00182605	      0.94038506	      0.53841606	     -0.00127031	      0.94038506	      0.44340146	     -0.00103212	      0.78869508	      0.41172993	     -0.00063510	      0.59910194	      0.38005840	     -0.00793921	      4.37518461	      2.81836104	      0.00000000	      0.00000000	     26.89591480	      1.29095102	     -7.38860177	     12.91453376	     -5.18930006	     69.84582898	     38.33775535	     86.94763993	     -3.99325283	     -0.01847703	     14.21809951	     -2.40060759	     77.42430046	     33.96905528	     65.39828303	    -15.38039109	      1.29205603
      0.13559322	      1.35169639	     -1.75783295	     99.30639425	      0.27838578	      0.72262000	      0.90079224	     -2.99746961	      3.07336469	      7.24656370	      1.53135073	      0.02672711	     19.61607892	     -9.11491526	      0.00000000	     -0.60728536	     -2.39262982	     -1.75224901	      6.45866589	      0.11272499	     27.71472960	      0.39606154	      0.00000000	      0.05133288	      0.38020351	      0.42156629	      0.09533029	      0.50567066	      0.44791419	      0.08433478	      0.92442680	      0.44791419	      0.05866835	      0.92442680	      0.36887051	      0.04766771	      0.77531099	      0.34252261	      0.02933161	      0.58893523	      0.31617472	      0.36666561	      4.30093810	      2.34462526	      0.00000000	      0.00000000	     27.60839177	      1.00620157	     -6.77474186	     13.23707630	     -4.48571137	     70.95317470	     37.21053247	     86.72995322	     -3.78941473	     -0.04133917	     13.34072138	     -1.91273190	     75.37067675	     32.23371862	     62.33434372	    -14.17727306	      0.04577641
      0.15254237	      1.43406669	     -2.04143596	     99.30151430	      0.27864973	      0.72171999	      0.90081028	     -2.67137879	      3.12515225	      7.33323512	      1.51796740	      0.02649353	     19.79323774	     -9.11940714	      0.00000000	     -0.23713983	     -2.43192507	     -1.46543236	      6.51846165	      0.11376862	     27.85390527	      0.12616715	      0.00000000	      0.09580255	      0.36862340	      0.35468836	      0.17791491	      0.49026912	      0.37685638	      0.15739400	      0.89627092	      0.37685638	      0.10949273	      0.89627092	      0.31035231	      0.08896225	      0.75169683	      0.28818429	      0.05474158	      0.57099764	      0.26601627	      0.68430801	      4.16994157	      1.97267022	      0.00000000	      0.00000000	     27.88657769	      0.61732319	     -6.58072994	     13.37215200	     -3.76434491	     71.33026652	     36.06340627	     86.11611786	     -3.53275785	     -0.03720635	     12.71814322	     -1.48969419	     73.65727477	     30.61422129	     58.78355521	    -13.20153660	     -1.12182300
